<?xml version="1.0" encoding="utf-8"?>
<!-- Generator: Adobe Illustrator 25.2.3, SVG Export Plug-In . SVG Version: 6.00 Build 0)  -->
<svg version="1.1" id="Layer_51" xmlns="http://www.w3.org/2000/svg" xmlns:xlink="http://www.w3.org/1999/xlink" x="0px" y="0px"
	 viewBox="0 0 64 64" style="enable-background:new 0 0 64 64;" xml:space="preserve">
<style type="text/css">
	.st0{fill:#BDDBFF;}
	.st1{fill:#9BC9FF;}
	.st2{fill:#ED1C24;}
	.st3{fill:#006DF0;}
	.st4{fill:#2488FF;}
	.st5{fill:#57A4FF;}
	.st6{fill:#FF3051;}
	.st7{fill:#231F20;}
	.st8{fill:#58595B;}
	.st9{fill:#FFCD00;}
	.st10{fill:#EBBF00;}
	.st11{fill:#FF9811;}
	.st12{fill:#FFBCAB;}
	.st13{fill:#FFB8A5;}
	.st14{fill:#6D6E71;}
	.st15{fill:#8B5E3C;}
	.st16{fill:#C49A6C;}
	.st17{fill:#A97C50;}
	.st18{fill:#DF2A47;}
	.st19{fill:#A7A9AC;}
	.st20{fill:#FFD2C7;}
	.st21{fill:#FF9478;}
	.st22{fill:#D1D3D4;}
	.st23{fill:#005ECE;}
	.st24{fill:#BCBEC0;}
	.st25{fill:#ED539D;}
	.st26{fill:#FFAC96;}
	.st27{fill:#DDB200;}
	.st28{fill:#FFDE55;}
	.st29{fill:#F072AE;}
	.st30{fill:#EA348B;}
	.st31{fill:#4E901E;}
	.st32{fill:#7ED63E;}
	.st33{fill:#5EAC24;}
	.st34{fill:#CF1820;}
	.st35{fill:#D80027;}
	.st36{fill:#E4187A;}
	.st37{fill:#FFD422;}
	.st38{fill:#414042;}
	.st39{fill:none;}
	.st40{fill:#003F8A;}
	.st41{fill:#00479B;}
	.st42{fill:#004FAC;}
	.st43{fill:#E6E7E8;}
	.st44{fill:#CCA400;}
	.st45{fill:#FF6243;}
	.st46{fill:#808285;}
	.st47{fill:#F1F2F2;}
	.st48{fill:#EE8700;}
	.st49{fill:#B2151B;}
	.st50{fill:#941216;}
	.st51{fill:#754C29;}
	.st52{fill:#D1E7F8;}
	.st53{fill:#939598;}
</style>
<g id="heart-love-music-song-valentine">
	<g>
		<path class="st6" d="M60.49,25.88c0,4.1-1.57,8.2-4.69,11.32L32,61L8.2,37.2c-3.12-3.12-4.69-7.22-4.69-11.32
			c0-4.09,1.57-8.18,4.69-11.31c6.25-6.24,16.38-6.24,22.63,0L32,15.74l1.17-1.17c6.25-6.24,16.38-6.24,22.63,0
			C58.92,17.7,60.49,21.79,60.49,25.88z"/>
		<g>
			<path class="st18" d="M55.8,14.57c-3.507-3.501-8.236-5.037-12.815-4.609c3.582,0.335,7.072,1.87,9.815,4.609
				c3.12,3.13,4.69,7.22,4.69,11.31c0,4.1-1.57,8.2-4.69,11.32L30.5,59.5L32,61l23.8-23.8c3.12-3.12,4.69-7.22,4.69-11.32
				C60.49,21.79,58.92,17.7,55.8,14.57z"/>
		</g>
		<polygon class="st9" points="26,29 40,25 40,21 26,25 		"/>
		<circle class="st9" cx="23" cy="40" r="3"/>
		<circle class="st9" cx="37" cy="36" r="3"/>
		<g>
			<path class="st7" d="M56.51,13.86c-6.63-6.62-17.42-6.62-24.05,0L32,14.33l-0.46-0.47c-6.63-6.62-17.42-6.62-24.05,0
				c-3.21,3.23-4.98,7.49-4.98,12.02c0,4.54,1.77,8.81,4.98,12.03l23.8,23.8C31.49,61.9,31.74,62,32,62s0.51-0.1,0.71-0.29
				l23.8-23.8c3.21-3.22,4.98-7.49,4.98-12.03C61.49,21.35,59.72,17.09,56.51,13.86z M55.09,36.49L32,59.59L8.91,36.49
				c-2.84-2.83-4.4-6.6-4.4-10.61c0-3.99,1.56-7.76,4.4-10.6c2.92-2.92,6.76-4.38,10.61-4.38c3.84,0,7.68,1.46,10.6,4.38l1.17,1.17
				c0.38,0.37,1.04,0.37,1.42,0l1.17-1.17c5.85-5.84,15.36-5.84,21.21,0c2.84,2.84,4.4,6.61,4.4,10.6
				C59.49,29.89,57.93,33.66,55.09,36.49z"/>
			<path class="st7" d="M20.516,13.89c0-0.552-0.447-1-1-1c-3.474,0-6.737,1.348-9.19,3.797C7.864,19.157,6.51,22.421,6.51,25.88
				c0,0.552,0.447,1,1,1c0.553,0,1-0.448,1-1c0-2.926,1.147-5.689,3.229-7.779c2.075-2.07,4.836-3.211,7.776-3.211
				C20.068,14.89,20.516,14.442,20.516,13.89z"/>
			<path class="st7" d="M40.6,20.2c-0.25-0.19-0.57-0.25-0.87-0.16l-14,4C25.3,24.16,25,24.55,25,25v11.56
				C24.41,36.21,23.73,36,23,36c-2.21,0-4,1.79-4,4c0,2.21,1.79,4,4,4s4-1.79,4-4V29.75l12-3.42v6.23C38.41,32.21,37.73,32,37,32
				c-2.21,0-4,1.79-4,4c0,2.21,1.79,4,4,4s4-1.79,4-4V21C41,20.69,40.85,20.39,40.6,20.2z M23,42c-1.1,0-2-0.9-2-2c0-1.1,0.9-2,2-2
				s2,0.9,2,2C25,41.1,24.1,42,23,42z M37,38c-1.1,0-2-0.9-2-2c0-1.1,0.9-2,2-2s2,0.9,2,2C39,37.1,38.1,38,37,38z M39,24.25
				l-12,3.42v-1.92l12-3.42V24.25z"/>
		</g>
	</g>
</g>
</svg>
